<?xml version="1.0" encoding="utf-8"?>
<!-- Generator: Adobe Illustrator 26.5.0, SVG Export Plug-In . SVG Version: 6.00 Build 0)  -->
<svg version="1.1" id="Layer_1" xmlns="http://www.w3.org/2000/svg" xmlns:xlink="http://www.w3.org/1999/xlink" x="0px" y="0px"
	 viewBox="0 0 401.28 104.34" style="enable-background:new 0 0 401.28 104.34;" xml:space="preserve">
<style type="text/css">
	.st0{fill:url(#SVGID_1_);}
	.st1{fill:url(#SVGID_00000025420264396414868120000012218272270984241035_);}
	.st2{fill:url(#SVGID_00000119083426948940929700000006838218630078316687_);}
	.st3{fill:url(#SVGID_00000174575083896783868450000003721265453088311697_);}
	.st4{fill:url(#SVGID_00000105422012293742869450000006208266842583765639_);}
	.st5{fill:url(#SVGID_00000143593165009418333110000013429798353167782065_);}
	.st6{fill:url(#SVGID_00000036223568046575302320000006870634583180407219_);}
	.st7{fill:url(#SVGID_00000021085937477968403340000013051766502196731561_);}
	.st8{fill:url(#SVGID_00000148650498589877628960000012136770220538824363_);}
	.st9{fill:url(#SVGID_00000096768536429347238110000014867947710982807469_);}
	.st10{fill:url(#SVGID_00000017515684877229603070000018390015442101852842_);}
	.st11{fill:url(#SVGID_00000155140535148527027380000001520120382762722443_);}
	.st12{opacity:0.5;fill:url(#SVGID_00000105403112944615584810000011020674479227357624_);}
	.st13{fill:url(#SVGID_00000044884585633429630460000014726688339558175884_);}
	.st14{fill:url(#SVGID_00000180337941609054828100000011919858171326000042_);}
	.st15{fill:url(#SVGID_00000075851386889249213440000002374721564727890871_);}
	.st16{fill:url(#SVGID_00000039826433130960968820000012790252405269719957_);}
</style>
<g>
	<linearGradient id="SVGID_1_" gradientUnits="userSpaceOnUse" x1="120.0276" y1="53.5774" x2="401.2844" y2="53.5774">
		<stop  offset="0" style="stop-color:#4385C6"/>
		<stop  offset="0.9944" style="stop-color:#274597"/>
	</linearGradient>
	<path class="st0" d="M129.38,49.35v12.11c0,0.84,0.2,1.45,0.61,1.83c0.41,0.38,1.09,0.57,2.06,0.57h2.94v5.33h-3.98
		c-5.33,0-8-2.59-8-7.77V49.35h-2.98v-5.2h2.98v-6.19h6.37v6.19h5.6v5.2H129.38z"/>
	
		<linearGradient id="SVGID_00000104675785066386174690000017566935460516838294_" gradientUnits="userSpaceOnUse" x1="120.0276" y1="56.6721" x2="401.2844" y2="56.6721">
		<stop  offset="0" style="stop-color:#4385C6"/>
		<stop  offset="0.9944" style="stop-color:#274597"/>
	</linearGradient>
	<path style="fill:url(#SVGID_00000104675785066386174690000017566935460516838294_);" d="M162.63,58.57h-18.3
		c0.15,1.81,0.78,3.22,1.9,4.25c1.11,1.02,2.49,1.54,4.11,1.54c2.35,0,4.02-1.01,5.02-3.03h6.82c-0.72,2.41-2.11,4.39-4.16,5.94
		c-2.05,1.55-4.56,2.33-7.55,2.33c-2.41,0-4.57-0.53-6.48-1.6c-1.91-1.07-3.4-2.58-4.47-4.54s-1.6-4.22-1.6-6.78
		c0-2.59,0.53-4.86,1.58-6.82c1.05-1.96,2.53-3.46,4.43-4.52c1.9-1.05,4.08-1.58,6.55-1.58c2.38,0,4.51,0.51,6.39,1.54
		c1.88,1.02,3.34,2.48,4.38,4.36c1.04,1.88,1.56,4.04,1.56,6.48C162.81,57.03,162.75,57.85,162.63,58.57z M156.26,54.32
		c-0.03-1.63-0.62-2.93-1.76-3.91c-1.15-0.98-2.55-1.47-4.2-1.47c-1.57,0-2.88,0.47-3.95,1.42c-1.07,0.95-1.73,2.27-1.97,3.95
		H156.26z"/>
	
		<linearGradient id="SVGID_00000049933000426738849740000014941442745496910738_" gradientUnits="userSpaceOnUse" x1="120.0276" y1="52.4704" x2="401.2844" y2="52.4704">
		<stop  offset="0" style="stop-color:#4385C6"/>
		<stop  offset="0.9944" style="stop-color:#274597"/>
	</linearGradient>
	<path style="fill:url(#SVGID_00000049933000426738849740000014941442745496910738_);" d="M173.75,35.75v33.43h-6.33V35.75H173.75z"
		/>
	
		<linearGradient id="SVGID_00000076581490920466761800000002544009599154609079_" gradientUnits="userSpaceOnUse" x1="120.0276" y1="56.6721" x2="401.2844" y2="56.6721">
		<stop  offset="0" style="stop-color:#4385C6"/>
		<stop  offset="0.9944" style="stop-color:#274597"/>
	</linearGradient>
	<path style="fill:url(#SVGID_00000076581490920466761800000002544009599154609079_);" d="M203.07,58.57h-18.3
		c0.15,1.81,0.78,3.22,1.9,4.25c1.11,1.02,2.49,1.54,4.11,1.54c2.35,0,4.02-1.01,5.02-3.03h6.82c-0.72,2.41-2.11,4.39-4.16,5.94
		c-2.05,1.55-4.56,2.33-7.55,2.33c-2.41,0-4.57-0.53-6.48-1.6c-1.91-1.07-3.4-2.58-4.47-4.54s-1.6-4.22-1.6-6.78
		c0-2.59,0.53-4.86,1.58-6.82c1.05-1.96,2.53-3.46,4.43-4.52c1.9-1.05,4.08-1.58,6.55-1.58c2.38,0,4.51,0.51,6.39,1.54
		c1.88,1.02,3.34,2.48,4.38,4.36c1.04,1.88,1.56,4.04,1.56,6.48C203.25,57.03,203.19,57.85,203.07,58.57z M196.7,54.32
		c-0.03-1.63-0.62-2.93-1.76-3.91c-1.15-0.98-2.55-1.47-4.2-1.47c-1.57,0-2.88,0.47-3.95,1.42c-1.07,0.95-1.73,2.27-1.97,3.95H196.7
		z"/>
	
		<linearGradient id="SVGID_00000011018297500771967130000009673093807126373300_" gradientUnits="userSpaceOnUse" x1="120.0276" y1="52.4704" x2="401.2844" y2="52.4704">
		<stop  offset="0" style="stop-color:#4385C6"/>
		<stop  offset="0.9944" style="stop-color:#274597"/>
	</linearGradient>
	<path style="fill:url(#SVGID_00000011018297500771967130000009673093807126373300_);" d="M227.02,45.04
		c1.47,0.83,2.63,2.05,3.46,3.66c0.83,1.61,1.24,3.55,1.24,5.81v14.68h-6.33V55.36c0-1.99-0.5-3.52-1.49-4.59
		c-0.99-1.07-2.35-1.6-4.07-1.6c-1.75,0-3.12,0.54-4.13,1.6c-1.01,1.07-1.51,2.6-1.51,4.59v13.83h-6.33V35.75h6.33v11.52
		c0.81-1.08,1.9-1.94,3.25-2.55s2.86-0.93,4.52-0.93C223.85,43.8,225.54,44.21,227.02,45.04z"/>
	
		<linearGradient id="SVGID_00000011005768412040658100000012054632168378320514_" gradientUnits="userSpaceOnUse" x1="120.0276" y1="56.6721" x2="401.2844" y2="56.6721">
		<stop  offset="0" style="stop-color:#4385C6"/>
		<stop  offset="0.9944" style="stop-color:#274597"/>
	</linearGradient>
	<path style="fill:url(#SVGID_00000011005768412040658100000012054632168378320514_);" d="M260.81,58.57h-18.3
		c0.15,1.81,0.78,3.22,1.9,4.25c1.11,1.02,2.49,1.54,4.11,1.54c2.35,0,4.02-1.01,5.02-3.03h6.82c-0.72,2.41-2.11,4.39-4.16,5.94
		c-2.05,1.55-4.56,2.33-7.55,2.33c-2.41,0-4.57-0.53-6.48-1.6c-1.91-1.07-3.4-2.58-4.47-4.54s-1.6-4.22-1.6-6.78
		c0-2.59,0.53-4.86,1.58-6.82c1.05-1.96,2.53-3.46,4.43-4.52c1.9-1.05,4.08-1.58,6.55-1.58c2.38,0,4.51,0.51,6.39,1.54
		c1.88,1.02,3.34,2.48,4.38,4.36c1.04,1.88,1.56,4.04,1.56,6.48C260.99,57.03,260.93,57.85,260.81,58.57z M254.44,54.32
		c-0.03-1.63-0.62-2.93-1.76-3.91c-1.15-0.98-2.55-1.47-4.2-1.47c-1.57,0-2.88,0.47-3.95,1.42c-1.07,0.95-1.73,2.27-1.97,3.95
		H254.44z"/>
	
		<linearGradient id="SVGID_00000014616569894715012360000012040483159370056589_" gradientUnits="userSpaceOnUse" x1="120.0276" y1="56.6721" x2="401.2844" y2="56.6721">
		<stop  offset="0" style="stop-color:#4385C6"/>
		<stop  offset="0.9944" style="stop-color:#274597"/>
	</linearGradient>
	<path style="fill:url(#SVGID_00000014616569894715012360000012040483159370056589_);" d="M265.49,49.85
		c1.01-1.96,2.38-3.46,4.11-4.52c1.73-1.05,3.67-1.58,5.81-1.58c1.87,0,3.5,0.38,4.9,1.13c1.4,0.75,2.52,1.7,3.37,2.85v-3.57h6.37
		v25.03h-6.37v-3.66c-0.81,1.17-1.94,2.15-3.37,2.92c-1.43,0.77-3.08,1.15-4.95,1.15c-2.11,0-4.03-0.54-5.76-1.63
		c-1.73-1.08-3.1-2.61-4.11-4.59c-1.01-1.97-1.51-4.24-1.51-6.8C263.98,54.05,264.48,51.81,265.49,49.85z M282.77,52.72
		c-0.6-1.1-1.42-1.94-2.44-2.53c-1.02-0.59-2.12-0.88-3.3-0.88s-2.26,0.29-3.25,0.86s-1.8,1.41-2.42,2.51
		c-0.62,1.1-0.93,2.4-0.93,3.91s0.31,2.82,0.93,3.95s1.43,2,2.44,2.6c1.01,0.6,2.08,0.9,3.23,0.9c1.17,0,2.27-0.29,3.3-0.88
		c1.02-0.59,1.84-1.43,2.44-2.53c0.6-1.1,0.9-2.42,0.9-3.95S283.37,53.82,282.77,52.72z"/>
	
		<linearGradient id="SVGID_00000114075295339497645070000005101344248245416084_" gradientUnits="userSpaceOnUse" x1="120.0276" y1="52.4704" x2="401.2844" y2="52.4704">
		<stop  offset="0" style="stop-color:#4385C6"/>
		<stop  offset="0.9944" style="stop-color:#274597"/>
	</linearGradient>
	<path style="fill:url(#SVGID_00000114075295339497645070000005101344248245416084_);" d="M302.56,35.75v33.43h-6.33V35.75H302.56z"
		/>
	
		<linearGradient id="SVGID_00000019664947234503428540000012894481066187499154_" gradientUnits="userSpaceOnUse" x1="120.0276" y1="51.4763" x2="401.2844" y2="51.4763">
		<stop  offset="0" style="stop-color:#4385C6"/>
		<stop  offset="0.9944" style="stop-color:#274597"/>
	</linearGradient>
	<path style="fill:url(#SVGID_00000019664947234503428540000012894481066187499154_);" d="M309.23,40.11
		c-0.74-0.71-1.11-1.59-1.11-2.64s0.37-1.94,1.11-2.64c0.74-0.71,1.66-1.06,2.78-1.06s2.04,0.35,2.78,1.06
		c0.74,0.71,1.11,1.59,1.11,2.64s-0.37,1.94-1.11,2.64c-0.74,0.71-1.67,1.06-2.78,1.06S309.96,40.82,309.23,40.11z M315.12,44.16
		v25.03h-6.33V44.16H315.12z"/>
	
		<linearGradient id="SVGID_00000176020198268192680460000004277188067478840489_" gradientUnits="userSpaceOnUse" x1="120.0276" y1="56.4914" x2="401.2844" y2="56.4914">
		<stop  offset="0" style="stop-color:#4385C6"/>
		<stop  offset="0.9944" style="stop-color:#274597"/>
	</linearGradient>
	<path style="fill:url(#SVGID_00000176020198268192680460000004277188067478840489_);" d="M342.46,46.62
		c1.84,1.88,2.76,4.51,2.76,7.88v14.68h-6.33V55.36c0-1.99-0.5-3.52-1.49-4.59c-0.99-1.07-2.35-1.6-4.07-1.6
		c-1.75,0-3.12,0.54-4.13,1.6c-1.01,1.07-1.51,2.6-1.51,4.59v13.83h-6.33V44.16h6.33v3.12c0.84-1.08,1.92-1.94,3.23-2.55
		s2.75-0.93,4.31-0.93C338.21,43.8,340.62,44.74,342.46,46.62z"/>
	
		<linearGradient id="SVGID_00000085211574119370501330000011120436030048396211_" gradientUnits="userSpaceOnUse" x1="120.0276" y1="62.6364" x2="401.2844" y2="62.6364">
		<stop  offset="0" style="stop-color:#4385C6"/>
		<stop  offset="0.9944" style="stop-color:#274597"/>
	</linearGradient>
	<path style="fill:url(#SVGID_00000085211574119370501330000011120436030048396211_);" d="M365.95,44.86
		c1.42,0.74,2.53,1.69,3.34,2.87v-3.57h6.37v25.21c0,2.32-0.47,4.39-1.4,6.21c-0.93,1.82-2.33,3.27-4.2,4.34
		c-1.87,1.07-4.13,1.6-6.78,1.6c-3.55,0-6.47-0.83-8.74-2.49c-2.27-1.66-3.56-3.92-3.86-6.78h6.28c0.33,1.14,1.05,2.06,2.15,2.73
		s2.43,1.02,4,1.02c1.84,0,3.33-0.55,4.47-1.65c1.14-1.1,1.72-2.76,1.72-4.99v-3.89c-0.81,1.17-1.94,2.15-3.37,2.94
		c-1.43,0.78-3.07,1.17-4.9,1.17c-2.11,0-4.04-0.54-5.78-1.63c-1.75-1.08-3.12-2.61-4.13-4.59c-1.01-1.97-1.51-4.24-1.51-6.8
		c0-2.53,0.5-4.77,1.51-6.73c1.01-1.96,2.38-3.46,4.11-4.52c1.73-1.05,3.67-1.58,5.81-1.58C362.89,43.75,364.54,44.12,365.95,44.86z
		 M368.39,52.72c-0.6-1.1-1.42-1.94-2.44-2.53c-1.02-0.59-2.12-0.88-3.3-0.88s-2.26,0.29-3.25,0.86s-1.8,1.41-2.42,2.51
		c-0.62,1.1-0.93,2.4-0.93,3.91s0.31,2.82,0.93,3.95s1.43,2,2.44,2.6c1.01,0.6,2.08,0.9,3.23,0.9c1.17,0,2.27-0.29,3.3-0.88
		c1.02-0.59,1.84-1.43,2.44-2.53c0.6-1.1,0.9-2.42,0.9-3.95S368.99,53.82,368.39,52.72z"/>
	
		<linearGradient id="SVGID_00000008138198623965812590000003624261280672346018_" gradientUnits="userSpaceOnUse" x1="120.0276" y1="56.6721" x2="401.2844" y2="56.6721">
		<stop  offset="0" style="stop-color:#4385C6"/>
		<stop  offset="0.9944" style="stop-color:#274597"/>
	</linearGradient>
	<path style="fill:url(#SVGID_00000008138198623965812590000003624261280672346018_);" d="M385.92,68.49
		c-1.63-0.74-2.91-1.74-3.86-3c-0.95-1.26-1.47-2.67-1.56-4.2h6.37c0.12,0.96,0.59,1.76,1.42,2.39c0.83,0.63,1.86,0.95,3.1,0.95
		c1.2,0,2.15-0.24,2.82-0.72c0.68-0.48,1.02-1.1,1.02-1.85c0-0.81-0.41-1.42-1.24-1.83c-0.83-0.41-2.15-0.85-3.95-1.33
		c-1.87-0.45-3.4-0.92-4.59-1.4c-1.19-0.48-2.21-1.22-3.07-2.21c-0.86-0.99-1.29-2.33-1.29-4.02c0-1.38,0.4-2.65,1.2-3.79
		c0.8-1.14,1.94-2.05,3.43-2.71s3.25-0.99,5.26-0.99c2.98,0,5.36,0.75,7.14,2.24s2.76,3.5,2.94,6.03H395
		c-0.09-0.99-0.5-1.79-1.24-2.37c-0.74-0.59-1.72-0.88-2.96-0.88c-1.14,0-2.03,0.21-2.64,0.63c-0.62,0.42-0.93,1.01-0.93,1.76
		c0,0.84,0.42,1.48,1.27,1.92c0.84,0.44,2.15,0.88,3.93,1.33c1.81,0.45,3.3,0.92,4.47,1.4c1.17,0.48,2.19,1.23,3.05,2.24
		c0.86,1.01,1.3,2.34,1.33,4c0,1.45-0.4,2.74-1.2,3.89c-0.8,1.14-1.94,2.04-3.43,2.69s-3.23,0.97-5.22,0.97
		C389.39,69.59,387.55,69.22,385.92,68.49z"/>
</g>
<linearGradient id="SVGID_00000178166829701911022550000005985899067487273112_" gradientUnits="userSpaceOnUse" x1="112.7047" y1="75.6516" x2="46.3606" y2="8.1872">
	<stop  offset="0" style="stop-color:#FCEA21"/>
	<stop  offset="0.0869" style="stop-color:#FAE321"/>
	<stop  offset="0.2385" style="stop-color:#F3CF22"/>
	<stop  offset="0.4367" style="stop-color:#E7AD22"/>
	<stop  offset="0.6739" style="stop-color:#D97920"/>
	<stop  offset="0.9414" style="stop-color:#C9321B"/>
	<stop  offset="1" style="stop-color:#C61D1A"/>
</linearGradient>
<path style="opacity:0.5;fill:url(#SVGID_00000178166829701911022550000005985899067487273112_);" d="M104.35,34.03
	C85.55,34.03,70.31,18.8,70.31,0H34.03c0,0.59,0.01,1.17,0.02,1.75c0.01,0.2,0.01,0.39,0.02,0.59c0.01,0.39,0.03,0.77,0.04,1.16
	c0.01,0.23,0.03,0.46,0.04,0.69c0.02,0.35,0.04,0.69,0.07,1.04c0.02,0.25,0.04,0.5,0.06,0.74c0.03,0.33,0.06,0.65,0.09,0.98
	c0.03,0.26,0.05,0.51,0.08,0.77c0.03,0.31,0.07,0.63,0.11,0.94c0.03,0.26,0.07,0.52,0.1,0.79c0.04,0.3,0.08,0.61,0.13,0.91
	c0.04,0.27,0.08,0.53,0.12,0.8c0.05,0.3,0.1,0.59,0.15,0.89c0.05,0.27,0.1,0.53,0.14,0.8c0.05,0.29,0.11,0.58,0.17,0.87
	c0.05,0.27,0.11,0.54,0.16,0.81c0.06,0.28,0.12,0.56,0.18,0.84c0.06,0.27,0.12,0.54,0.18,0.81c0.07,0.27,0.13,0.55,0.2,0.82
	c0.07,0.27,0.13,0.55,0.21,0.82c0.07,0.27,0.14,0.53,0.21,0.8c0.08,0.28,0.15,0.55,0.23,0.83c0.07,0.25,0.15,0.51,0.23,0.76
	c0.08,0.28,0.17,0.57,0.26,0.85c0.07,0.23,0.15,0.46,0.22,0.69c0.1,0.3,0.2,0.6,0.3,0.9c0.04,0.12,0.08,0.24,0.13,0.36
	c0.28,0.81,0.57,1.61,0.88,2.41c0.03,0.09,0.07,0.18,0.1,0.27c0.13,0.34,0.27,0.68,0.41,1.01c0.07,0.17,0.14,0.34,0.21,0.51
	c0.14,0.32,0.28,0.64,0.42,0.96c0.08,0.18,0.16,0.37,0.24,0.55c0.14,0.32,0.29,0.63,0.43,0.94c0.08,0.18,0.17,0.36,0.25,0.54
	c0.15,0.31,0.3,0.62,0.45,0.93c0.09,0.18,0.18,0.36,0.27,0.54c0.16,0.31,0.31,0.62,0.47,0.92c0.09,0.18,0.18,0.35,0.28,0.52
	c0.16,0.31,0.33,0.62,0.5,0.92c0.09,0.17,0.19,0.33,0.28,0.5c0.17,0.31,0.35,0.62,0.53,0.92c0.09,0.16,0.19,0.32,0.28,0.48
	c0.18,0.31,0.37,0.62,0.56,0.93c0.09,0.15,0.18,0.29,0.27,0.44c0.2,0.31,0.4,0.63,0.6,0.94c0.09,0.13,0.17,0.26,0.26,0.39
	c0.21,0.32,0.43,0.65,0.65,0.97c0.07,0.11,0.15,0.21,0.22,0.32c0.23,0.34,0.47,0.68,0.71,1.02c0.05,0.07,0.1,0.14,0.15,0.2
	c12.77,17.68,33.55,29.18,57.03,29.18L85.7,51.66c6.78-1.34,13.08-3.98,18.64-7.67V34.03z"/>
<linearGradient id="SVGID_00000148661583504742945940000002966444177810731904_" gradientUnits="userSpaceOnUse" x1="83.8133" y1="50.2734" x2="72.1922" y2="31.9701">
	<stop  offset="5.586592e-03" style="stop-color:#274597"/>
	<stop  offset="1" style="stop-color:#4385C6"/>
</linearGradient>
<path style="fill:url(#SVGID_00000148661583504742945940000002966444177810731904_);" d="M34.03,0h36.28
	c0,18.8,15.24,34.03,34.03,34.03v36.28C65.51,70.31,34.03,38.83,34.03,0z"/>
<linearGradient id="SVGID_00000109731979856676901860000014636174404075268244_" gradientUnits="userSpaceOnUse" x1="57.0506" y1="82.6799" x2="76.8065" y2="68.7345">
	<stop  offset="5.586592e-03" style="stop-color:#274597"/>
	<stop  offset="1" style="stop-color:#4385C6"/>
</linearGradient>
<path style="fill:url(#SVGID_00000109731979856676901860000014636174404075268244_);" d="M34.03,104.34h36.28
	c0-18.8,15.24-34.03,34.03-34.03V34.03C65.51,34.03,34.03,65.51,34.03,104.34z"/>
<linearGradient id="SVGID_00000126320309607509212390000002503581850193500095_" gradientUnits="userSpaceOnUse" x1="22.8032" y1="57.2548" x2="36.1675" y2="79.0445">
	<stop  offset="5.586592e-03" style="stop-color:#274597"/>
	<stop  offset="1" style="stop-color:#4385C6"/>
</linearGradient>
<path style="fill:url(#SVGID_00000126320309607509212390000002503581850193500095_);" d="M70.31,104.34H34.03
	c0-18.8-15.24-34.03-34.03-34.03V34.03C38.83,34.03,70.31,65.51,70.31,104.34z"/>
<linearGradient id="SVGID_00000177473370363054816570000005128331459061379981_" gradientUnits="userSpaceOnUse" x1="58.2816" y1="-9.2272" x2="10.0748" y2="66.7746">
	<stop  offset="5.586592e-03" style="stop-color:#274597"/>
	<stop  offset="1" style="stop-color:#4385C6"/>
</linearGradient>
<path style="fill:url(#SVGID_00000177473370363054816570000005128331459061379981_);" d="M70.31,0H34.03
	C34.03,18.8,18.8,34.03,0,34.03v36.28C38.83,70.31,70.31,38.83,70.31,0z"/>
</svg>
